<?xml version="1.0" standalone="no"?>
<!DOCTYPE svg PUBLIC "-//W3C//DTD SVG 20010904//EN"
 "http://www.w3.org/TR/2001/REC-SVG-20010904/DTD/svg10.dtd">
<svg version="1.0" xmlns="http://www.w3.org/2000/svg"
 width="500.000000pt" height="500.000000pt" viewBox="0 0 500.000000 500.000000"
 preserveAspectRatio="xMidYMid meet">

<g transform="translate(0.000000,500.000000) scale(0.100000,-0.100000)"
fill="#000000" stroke="none">
<path d="M879 3329 c-26 -4 -62 -14 -80 -22 -19 -8 -50 -18 -70 -21 -21 -4
-53 -17 -72 -30 -19 -13 -50 -29 -70 -35 -20 -7 -49 -27 -65 -45 -76 -87 -269
-532 -306 -707 -3 -14 -16 -30 -30 -37 -13 -6 -40 -25 -60 -42 -36 -32 -36
-33 -36 -110 0 -95 14 -116 103 -159 185 -90 486 -135 902 -134 463 0 836 70
950 178 34 32 35 34 35 113 0 79 0 80 -35 111 -19 17 -49 38 -65 46 -18 9 -30
23 -30 36 0 30 -109 354 -180 534 -65 165 -105 225 -148 225 -10 0 -37 14 -58
31 -50 40 -78 51 -134 50 -25 0 -58 4 -75 9 -37 12 -413 19 -476 9z m98 -15
c21 -6 21 -7 6 -30 -11 -18 -24 -24 -49 -24 -38 0 -114 21 -114 32 0 3 24 11
53 16 67 12 77 13 104 6z m203 -10 c22 -9 40 -20 40 -25 0 -5 -49 -9 -110 -9
-116 0 -137 9 -77 35 43 19 98 19 147 -1z m163 -1 c9 -8 -48 -43 -72 -43 -10
0 -26 11 -35 25 l-16 25 58 0 c32 0 62 -3 65 -7z m175 -33 c17 -11 32 -24 32
-29 0 -22 -61 -16 -220 19 -3 0 6 7 20 15 38 22 128 19 168 -5z m-689 -7 c21
-5 14 -9 -40 -24 -62 -18 -135 -16 -123 2 13 22 114 35 163 22z m559 -33 c34
-7 62 -15 62 -19 0 -3 -26 -6 -58 -7 -34 -1 -76 -9 -104 -21 l-46 -21 -21 21
c-30 31 -141 36 -192 9 -35 -18 -37 -18 -70 0 -36 19 -121 24 -162 9 -23 -9
-58 1 -40 12 8 5 79 18 168 31 56 8 400 -3 463 -14z m233 -20 c21 -6 43 -20
51 -33 59 -93 268 -685 268 -760 0 -33 -70 -93 -130 -111 -82 -24 -100 -22
-100 13 0 37 -61 370 -101 551 -41 186 -65 254 -104 295 l-33 35 27 6 c14 3
31 7 36 9 20 7 51 5 86 -5z m-902 -11 c31 -11 39 -27 22 -44 -19 -19 -113
-252 -167 -410 -60 -179 -93 -316 -94 -387 l0 -48 -69 0 c-80 0 -115 11 -154
48 -34 33 -35 63 -1 178 49 171 208 537 264 608 49 61 123 81 199 55z m231
-22 c15 -8 25 -21 24 -33 -1 -10 -17 -116 -37 -234 -46 -269 -77 -522 -77
-617 0 -70 -1 -73 -26 -79 -37 -9 -160 2 -221 21 -28 8 -66 29 -83 45 -33 31
-33 31 -27 108 13 184 226 766 289 791 34 14 129 13 158 -2z m271 -16 c23 -29
34 -67 59 -211 58 -341 88 -711 60 -745 -25 -30 -119 -49 -245 -49 -104 -1
-127 2 -169 22 l-49 22 6 138 c3 75 15 202 27 282 35 243 80 502 90 521 22 40
52 50 129 47 62 -3 76 -7 92 -27z m239 16 c35 -17 67 -69 91 -146 26 -86 127
-587 135 -671 6 -62 5 -68 -22 -99 -40 -47 -101 -72 -178 -72 -34 0 -74 3 -88
6 l-25 6 -6 157 c-6 166 -31 372 -73 612 -36 198 -38 182 21 202 60 20 111 22
145 5z m-1244 -789 c6 -21 25 -43 52 -62 38 -27 52 -30 134 -34 82 -4 96 -8
128 -32 54 -43 132 -64 240 -65 79 -1 101 -5 130 -23 19 -12 55 -25 80 -29
102 -17 288 0 351 33 20 10 36 11 60 4 91 -26 210 -3 270 53 26 25 49 34 101
43 102 18 178 71 201 139 6 16 87 -44 98 -72 25 -67 -90 -139 -296 -184 -480
-106 -1246 -77 -1545 57 -121 54 -145 123 -62 179 20 14 39 25 43 25 3 0 10
-15 15 -32z m65 -212 c200 -64 462 -96 802 -96 439 0 786 58 935 156 l52 34 0
-24 c0 -216 -1056 -323 -1687 -171 -117 28 -218 71 -250 107 -13 13 -26 39
-29 57 l-7 33 54 -35 c30 -20 88 -47 130 -61z"/>
<path d="M2845 3040 c-3 -5 0 -37 7 -70 15 -74 3 -153 -45 -302 l-34 -103 -47
150 c-26 83 -55 173 -64 200 l-17 50 -51 3 c-75 4 -83 -9 -55 -105 l22 -76
-32 -104 c-18 -56 -35 -103 -39 -103 -4 0 -26 64 -50 143 -61 202 -76 240
-111 273 -27 26 -37 29 -92 29 -113 0 -187 -62 -187 -155 0 -64 24 -94 75 -94
27 0 43 6 56 23 22 27 24 41 6 65 -11 15 -17 16 -39 5 -60 -27 -80 30 -29 82
32 32 80 39 100 15 6 -7 45 -128 87 -267 77 -258 91 -289 135 -289 34 0 56 36
99 164 23 70 44 125 47 123 2 -3 22 -62 43 -133 23 -77 46 -134 57 -142 20
-15 73 -9 85 11 11 18 104 308 133 417 25 94 31 153 19 184 -7 18 -69 23 -79
6z"/>
<path d="M3798 3034 c-34 -18 -36 -31 -5 -30 l22 1 5 -235 c5 -214 7 -238 26
-270 77 -131 279 -108 328 37 49 143 -18 303 -127 303 -23 0 -54 -6 -68 -14
l-26 -14 -5 106 c-4 87 -8 107 -23 118 -25 18 -93 17 -127 -2z m244 -284 c21
-41 25 -197 7 -249 -16 -46 -46 -59 -73 -32 -19 19 -21 35 -24 157 -4 148 2
167 47 162 18 -2 31 -14 43 -38z"/>
<path d="M4248 3034 c-34 -18 -36 -31 -5 -30 l22 1 5 -290 c3 -159 7 -291 8
-292 12 -9 64 -12 85 -4 l27 11 0 298 c0 218 -3 301 -12 310 -17 17 -97 14
-130 -4z"/>
<path d="M3045 2817 c-101 -57 -126 -231 -48 -335 92 -123 290 -68 322 90 32
153 -45 268 -179 268 -39 0 -67 -7 -95 -23z m132 -44 c15 -22 18 -49 18 -138
0 -134 -13 -175 -57 -175 -46 0 -60 47 -56 186 2 93 6 115 22 133 26 29 52 26
73 -6z"/>
<path d="M3480 2821 c-19 -10 -48 -37 -65 -60 -24 -35 -30 -54 -33 -112 -7
-118 43 -203 135 -228 47 -13 49 -13 95 -1 87 25 137 102 138 212 0 77 -11
112 -48 152 -54 57 -154 74 -222 37z m130 -56 c21 -42 21 -228 0 -270 -21 -42
-69 -43 -88 -2 -21 43 -19 235 3 276 21 42 63 40 85 -4z"/>
<path d="M4583 2810 c-159 -91 -141 -346 28 -388 74 -18 182 17 209 69 13 24
3 24 -23 2 -28 -26 -108 -24 -137 2 -21 19 -66 103 -58 110 1 2 39 24 83 50
105 62 115 72 115 112 0 74 -121 98 -217 43z m107 -29 c5 -11 10 -33 10 -50 0
-30 -7 -37 -89 -86 -12 -7 -13 2 -8 49 3 32 13 68 22 82 19 29 50 31 65 5z"/>
</g>
</svg>
