<svg xmlns="http://www.w3.org/2000/svg" shape-rendering="geometricPrecision" text-rendering="geometricPrecision" image-rendering="optimizeQuality" fill-rule="evenodd" clip-rule="evenodd" viewBox="0 0 493 511.769">
height="21px" width="21px">
<path fill-rule="nonzero" d="M65.905 115.589h131.411L306.008 6.074c8.056-8.055 21.091-8.12 29.141-.065 4.099 3.969 6.11 9.257 6.11 14.609h.065v67.441L47.837 385.579a28.41 28.41 0 00-6.45 10.175 66.152 66.152 0 01-22.005-14.57C7.423 369.284 0 352.794 0 334.666V181.489c0-18.128 7.423-34.618 19.323-46.513 12.386-12.391 29.043-19.387 46.582-19.387zM450.34 59.237c9.716-9.775 25.525-9.819 35.3-.103 9.774 9.715 9.818 25.524.102 35.299L341.324 240.311v233.01c0 11.392-9.251 20.707-20.713 20.707-5.79 0-11.013-2.39-14.792-6.234l-107.433-87.287h-15.657L79.865 504.409c-9.716 9.775-25.524 9.818-35.299.103-9.775-9.716-9.818-25.525-.103-35.3L327.121 183.7l14.203-14.398v.054L450.34 59.237z"/></svg>