<svg xmlns="http://www.w3.org/2000/svg" shape-rendering="geometricPrecision" text-rendering="geometricPrecision" image-rendering="optimizeQuality" fill-rule="evenodd" clip-rule="evenodd" viewBox="0 0 512 353.581">
height="23px" width="23px">
<path fill-rule="nonzero" d="M47.169 82.728h94.052l77.793-78.38c5.765-5.766 15.094-5.813 20.856-.047 2.933 2.84 4.373 6.625 4.373 10.455h.046v324.005c0 8.152-6.621 14.82-14.824 14.82-4.144 0-7.882-1.711-10.587-4.462l-76.891-62.473H47.169c-12.974 0-24.78-5.313-33.297-13.829C5.313 264.3 0 252.498 0 239.524V129.893c0-12.974 5.313-24.776 13.83-33.289 8.865-8.869 20.787-13.876 33.339-13.876zm264.132 49.011c-2.419-7.232 1.482-15.064 8.714-17.482 7.232-2.419 15.064 1.481 17.482 8.714 4.76 14.131 7.054 36.067 6.671 56.928-.371 20.442-3.359 40.528-9.139 52.392-3.344 6.873-11.636 9.732-18.508 6.389-6.873-3.343-9.732-11.636-6.389-18.508 4.017-8.246 6.126-23.991 6.431-40.707.333-18.039-1.474-36.485-5.262-47.726zm71.427-51.669c-2.929-7.055.414-15.149 7.468-18.079 7.054-2.929 15.149.414 18.078 7.468 12.87 30.813 19.816 69.628 20.396 108.207.577 38.002-5.034 76.059-17.238 106.295-2.837 7.081-10.889 10.521-17.97 7.684-7.081-2.836-10.521-10.888-7.685-17.969 10.838-26.851 15.814-61.134 15.288-95.685-.53-35.096-6.771-70.235-18.337-97.921zm69.032-43.896c-3.316-6.872-.43-15.137 6.442-18.453 6.873-3.316 15.138-.43 18.454 6.442 22.563 46.813 34.899 101.783 35.332 156.366.41 52.447-10.153 104.689-33.177 149.216-3.494 6.783-11.833 9.449-18.616 5.955-6.783-3.495-9.449-11.833-5.955-18.616 20.922-40.464 30.519-88.213 30.143-136.338-.398-50.528-11.794-101.35-32.623-144.572z"/></svg>